<?xml version="1.0" encoding="utf-8"?>
<!-- Generator: Adobe Illustrator 16.0.0, SVG Export Plug-In . SVG Version: 6.00 Build 0)  -->
<!DOCTYPE svg PUBLIC "-//W3C//DTD SVG 1.1//EN" "http://www.w3.org/Graphics/SVG/1.1/DTD/svg11.dtd">
<svg version="1.1" id="PyIstanbul" xmlns="http://www.w3.org/2000/svg" xmlns:xlink="http://www.w3.org/1999/xlink" x="0px" y="0px"
	 width="841.89px" height="595.28px" viewBox="0 0 841.89 595.28" enable-background="new 0 0 841.89 595.28" xml:space="preserve">
<g id="g8691" transform="matrix(1.772991,0,0,1.772991,-1062.907,-953.6594)">
	
		<linearGradient id="path7990_1_" gradientUnits="userSpaceOnUse" x1="761.793" y1="800.2054" x2="681.1733" y2="800.8464" gradientTransform="matrix(1.5208 0 0 -1.5208 -301.907 1886.2892)">
		<stop  offset="0" style="stop-color:#366A96"/>
		<stop  offset="1" style="stop-color:#3679B0"/>
	</linearGradient>
	<path id="path7990" fill="url(#path7990_1_)" d="M811.583,646.967c0-6.44,1.727-9.944,11.262-11.613
		c6.474-1.134,14.775-1.276,22.516,0c6.116,1.01,11.263,5.564,11.263,11.613v21.248c0,6.232-4.997,11.337-11.263,11.337h-22.516
		c-7.642,0-14.082,6.515-14.082,13.882v10.195h-7.742c-6.549,0-10.361-4.722-11.963-11.329c-2.161-8.876-2.069-14.166,0-22.667
		c1.794-7.417,7.525-11.329,14.074-11.329h8.451h22.524v-2.836h-22.524V646.967L811.583,646.967z"/>
	
		<linearGradient id="path7992_1_" gradientUnits="userSpaceOnUse" x1="777.7452" y1="784.5551" x2="618.1562" y2="784.5551" gradientTransform="matrix(1.5208 0 0 -1.5208 -301.907 1886.2892)">
		<stop  offset="0" style="stop-color:#FFC836"/>
		<stop  offset="1" style="stop-color:#FFE873"/>
	</linearGradient>
	<path id="path7992" fill="url(#path7992_1_)" d="M856.624,714.967c0,6.44-5.589,9.702-11.263,11.329
		c-8.534,2.452-15.383,2.077-22.516,0c-5.957-1.736-11.262-5.281-11.262-11.329v-21.249c0-6.115,5.097-11.337,11.262-11.337
		l22.516,0c7.5,0,14.082-6.482,14.082-14.165v-9.911h8.442c6.557,0,9.644,4.872,11.263,11.329c2.253,8.968,2.352,15.675,0,22.667
		c-2.278,6.791-4.714,11.329-11.263,11.329h-11.262l-22.517,0v2.837h22.517V714.967z"/>
	<path id="path7994" fill="#FFFFFF" d="M817.214,645.557c0-2.353,1.886-4.255,4.221-4.255c2.328,0,4.222,1.902,4.222,4.255
		c0,2.344-1.894,4.246-4.222,4.246C819.1,649.804,817.214,647.901,817.214,645.557z"/>
	<path id="path7996" fill="#FFFFFF" d="M842.55,716.377c0-2.344,1.894-4.246,4.221-4.246c2.336,0,4.222,1.902,4.222,4.246
		c0,2.352-1.886,4.254-4.222,4.254C844.444,720.631,842.55,718.729,842.55,716.377z"/>
</g>
<g>
	<path fill="#767676" d="M299.515,365.014c0-1.383,0.504-2.578,1.512-3.586c1.007-1.008,2.215-1.512,3.621-1.512
		c1.429,0,2.648,0.504,3.656,1.512c1.007,0.984,1.512,2.191,1.512,3.621s-0.504,2.648-1.512,3.656
		c-0.984,1.008-2.192,1.512-3.621,1.512c-1.43,0-2.649-0.504-3.656-1.512C300.019,367.697,299.515,366.467,299.515,365.014z
		 M308.62,379.252v34.242h-7.91v-34.242H308.62z"/>
	<path fill="#767676" d="M338.538,385.088l-6.539,3.48c-1.032-2.086-2.309-3.129-3.832-3.129c-0.727,0-1.348,0.24-1.863,0.72
		c-0.516,0.48-0.773,1.095-0.773,1.844c0,1.311,1.523,2.61,4.57,3.897c4.195,1.803,7.019,3.465,8.473,4.986
		c1.453,1.521,2.18,3.57,2.18,6.145c0,3.301-1.219,6.063-3.656,8.287c-2.368,2.107-5.227,3.16-8.578,3.16
		c-5.743,0-9.809-2.801-12.199-8.402l6.75-3.129c0.937,1.641,1.652,2.684,2.145,3.129c0.961,0.891,2.109,1.336,3.445,1.336
		c2.672,0,4.008-1.219,4.008-3.656c0-1.406-1.032-2.719-3.094-3.938c-0.797-0.398-1.594-0.785-2.391-1.16
		c-0.797-0.375-1.605-0.762-2.426-1.16c-2.297-1.125-3.915-2.25-4.852-3.375c-1.195-1.43-1.793-3.27-1.793-5.52
		c0-2.977,1.02-5.438,3.059-7.383c2.086-1.945,4.617-2.918,7.594-2.918C333.147,378.303,336.405,380.564,338.538,385.088z"/>
	<path fill="#767676" d="M356.011,386.635v26.859h-7.91v-26.859h-3.375v-7.383h3.375v-12.551h7.91v12.551h6.152v7.383H356.011z"/>
	<path fill="#767676" d="M393.417,379.252h7.945v34.242h-7.945v-3.586c-3.258,3.047-6.762,4.57-10.512,4.57
		c-4.734,0-8.648-1.711-11.742-5.133c-3.071-3.492-4.605-7.852-4.605-13.078c0-5.133,1.535-9.41,4.605-12.832
		c3.07-3.422,6.914-5.133,11.531-5.133c3.984,0,7.559,1.641,10.723,4.922V379.252z M374.644,396.268
		c0,3.281,0.879,5.953,2.637,8.016c1.805,2.086,4.078,3.129,6.82,3.129c2.93,0,5.296-1.008,7.102-3.023
		c1.805-2.086,2.707-4.734,2.707-7.945s-0.902-5.859-2.707-7.945c-1.805-2.039-4.148-3.059-7.031-3.059
		c-2.719,0-4.992,1.031-6.82,3.094C375.545,390.619,374.644,393.197,374.644,396.268z"/>
	<path fill="#767676" d="M411.347,379.252h7.945v3.164c2.765-2.742,5.883-4.113,9.352-4.113c3.984,0,7.089,1.254,9.316,3.762
		c1.921,2.133,2.883,5.613,2.883,10.441v20.988h-7.945v-19.101c0-3.371-0.47-5.7-1.406-6.987c-0.914-1.311-2.579-1.967-4.992-1.967
		c-2.625,0-4.488,0.866-5.59,2.599c-1.078,1.709-1.617,4.693-1.617,8.953v16.503h-7.945V379.252z"/>
	<path fill="#767676" d="M458.737,354.115v29.109c3.164-3.281,6.75-4.922,10.758-4.922c4.617,0,8.46,1.723,11.531,5.168
		c3.07,3.422,4.605,7.688,4.605,12.797c0,5.273-1.547,9.633-4.641,13.078c-3.071,3.422-6.949,5.133-11.637,5.133
		c-3.961,0-7.501-1.523-10.617-4.57v3.586h-7.91v-59.379H458.737z M477.546,396.619c0-3.281-0.892-5.953-2.672-8.016
		c-1.806-2.109-4.066-3.164-6.785-3.164c-2.906,0-5.273,1.02-7.102,3.059c-1.806,2.016-2.707,4.641-2.707,7.875
		c0,3.328,0.891,5.988,2.672,7.98c1.78,2.039,4.125,3.059,7.031,3.059c2.742,0,5.015-1.02,6.82-3.059
		C476.632,402.291,477.546,399.713,477.546,396.619z"/>
	<path fill="#767676" d="M501.909,379.252v19.652c0,5.672,2.237,8.508,6.715,8.508c4.477,0,6.715-2.836,6.715-8.508v-19.652h7.91
		v19.828c0,2.742-0.34,5.109-1.02,7.102c-0.656,1.781-1.793,3.387-3.41,4.816c-2.672,2.32-6.07,3.48-10.195,3.48
		c-4.102,0-7.488-1.16-10.16-3.48c-1.641-1.43-2.801-3.035-3.48-4.816c-0.656-1.594-0.984-3.961-0.984-7.102v-19.828H501.909z"/>
	<path fill="#767676" d="M541.144,354.115v59.379h-7.91v-59.379H541.144z"/>
</g>
</svg>
